<?xml version="1.0" encoding="UTF-8" standalone="no"?>
<!-- Created with Inkscape (http://www.inkscape.org/) -->

<svg
   version="1.1"
   id="svg2"
   width="231.20877"
   height="98.861015"
   viewBox="0 0 231.20878 98.861014"
   xml:space="preserve"
   sodipodi:docname="minemacs.svg"
   inkscape:version="1.2.2 (b0a8486541, 2022-12-01)"
   inkscape:export-filename="minemacs.png"
   inkscape:export-xdpi="400"
   inkscape:export-ydpi="400"
   xmlns:inkscape="http://www.inkscape.org/namespaces/inkscape"
   xmlns:sodipodi="http://sodipodi.sourceforge.net/DTD/sodipodi-0.dtd"
   xmlns:xlink="http://www.w3.org/1999/xlink"
   xmlns="http://www.w3.org/2000/svg"
   xmlns:svg="http://www.w3.org/2000/svg"><sodipodi:namedview
     id="namedview214"
     pagecolor="#ffffff"
     bordercolor="#666666"
     borderopacity="1.0"
     inkscape:showpageshadow="2"
     inkscape:pageopacity="0.0"
     inkscape:pagecheckerboard="0"
     inkscape:deskcolor="#d1d1d1"
     showgrid="false"
     inkscape:zoom="1.9708685"
     inkscape:cx="94.62833"
     inkscape:cy="97.418978"
     inkscape:window-width="1920"
     inkscape:window-height="1046"
     inkscape:window-x="0"
     inkscape:window-y="0"
     inkscape:window-maximized="1"
     inkscape:current-layer="svg2" /><defs
     id="defs6"><rect
       x="992.27368"
       y="144.0311"
       width="547.68567"
       height="126.66529"
       id="rect2906" /><linearGradient
       id="a"
       gradientUnits="userSpaceOnUse"
       x1="24"
       x2="24"
       y1="1048.3622"
       y2="1008.3622"><stop
         offset="0"
         stop-color="#6e3a84"
         id="stop354" /><stop
         offset="1"
         stop-color="#a75ec4"
         id="stop356" /></linearGradient><linearGradient
       id="b"
       gradientUnits="userSpaceOnUse"
       x1="23.404831"
       x2="33.265099"
       y1="22.8561"
       y2="34.208683"
       gradientTransform="matrix(11.240405,0,0,11.240405,551.45976,40.102905)"><stop
         offset="0"
         id="stop359"
         style="stop-opacity:0.71672058" /><stop
         offset="1"
         stop-color="#9b59b6"
         stop-opacity="0"
         id="stop361" /></linearGradient><linearGradient
       id="c"
       gradientUnits="userSpaceOnUse"
       x1="22.676477"
       x2="22.676477"
       y1="1052.4169"
       y2="1015.2677"
       gradientTransform="matrix(11.240405,0,0,11.240405,551.45976,-11249.337)"><stop
         offset="0"
         stop-color="#dde0e2"
         id="stop364" /><stop
         offset="1"
         stop-color="#fcfcfc"
         id="stop366" /></linearGradient><linearGradient
       xlink:href="#a"
       id="linearGradient674"
       gradientUnits="userSpaceOnUse"
       x1="24"
       y1="1048.3622"
       x2="24"
       y2="1008.3622"
       gradientTransform="matrix(10.233929,0,0,10.233929,18.317391,-10222.738)" /><linearGradient
       xlink:href="#linearGradient2706"
       id="linearGradient2708"
       x1="963.94287"
       y1="160.05997"
       x2="692.01135"
       y2="405.88007"
       gradientUnits="userSpaceOnUse"
       gradientTransform="translate(-1.2832031e-5)" /><linearGradient
       id="linearGradient2706"><stop
         style="stop-color:#a669bd;stop-opacity:1;"
         offset="0"
         id="stop2702" /><stop
         style="stop-color:#8e45ac;stop-opacity:1;"
         offset="1"
         id="stop2704" /></linearGradient></defs><g
     id="g8"
     transform="matrix(0.19801283,0,0,0.19801283,-13.735834,-14.532945)"><path
       d="m 895.9826,211.40932 c -49.35358,-12.11051 -89.46434,-13.72298 -112.0528,4.56641 l 16.86061,44.61037 49.8793,45.66414 -83.24926,8.4303 L 720,334 l 15.4775,38.19982 -39.20971,-1.09774 -28.2986,-1.27334 24.87381,26.38863 152.5213,165.76482 c 120.20852,-5.20523 301.9957,-103.25001 302.0711,-223.57115 -0.092,-17.18603 -2.1545,-34.30481 -6.1471,-51.0209 L 957.80484,176.76603 c -10.33575,-4.89885 -46.06393,24.37455 -61.82224,34.64329 z m -229.13304,158.37557 0.0664,0.11015 v -0.11015 z"
       fill="url(#b)"
       opacity="0.2"
       id="path375"
       style="fill:url(#b);stroke-width:11.2404" /><path
       id="rect2697"
       style="fill:url(#linearGradient2708);fill-opacity:1;stroke:none;stroke-width:0.623622;stroke-linecap:round;stroke-linejoin:round;paint-order:markers stroke fill;stop-color:#000000"
       d="m 923.8457,164.00781 c -2.30537,-0.0377 -4.85955,-0.0292 -7.69531,0.0312 -11.34484,0.24167 -19.83182,1.78835 -28.68555,4.76367 10.08189,-0.72723 30.92359,3.54578 30.96289,11.33985 0.0464,9.10473 -10.47377,8.96946 -26.19335,8.16015 -49.63698,-2.7775 -123.77675,-22.34356 -144.89844,-10.71875 -9.02688,4.96826 -12.86328,13.21134 -12.86328,20.98633 0,11.78106 10.78433,30.35894 28.17578,47.93555 14.66123,14.81708 39.89319,34.73328 56.21289,44.37305 12.39844,7.31861 12.7301,8.083 2.47656,5.66406 -48.43207,-11.42248 -98.9235,-7.45324 -136.19336,10.70898 -19.01536,9.26435 -29.85343,25.33027 -27.61328,40.92969 1.6287,11.34268 7.26833,20.80239 19.75391,33.13086 10.37632,10.24899 19.80037,17.09311 39.20117,28.47852 v -0.004 c 26.2302,15.2476 63.97584,27.34552 104.19336,35.67578 4.98656,1.03299 87.60875,17.48432 115.19726,-1.79297 17.03345,-11.90246 18.74332,-38.90638 -7.47851,-52.4668 3.10492,25.02338 -13.79628,29.73605 -46.80078,27.57227 -36.42558,-2.38745 -65.75883,-11.394 -89.88282,-19.33984 -29.64716,-10.22538 -61.40934,-30.39537 -55.6289,-49.28711 16.3706,-41.61306 135.21383,-29.28738 157.45703,-30.98242 -26.64781,-20.21811 -112.93102,-77.09165 -88.26563,-106.08399 10.4484,-12.27677 41.32815,-6.94653 77.30274,-0.43945 32.60844,5.89783 81.60011,24.17141 82.85156,-16.89649 0.38828,-12.7421 -8.07488,-22.75651 -17.39062,-27.11328 -4.04608,-1.89231 -8.0577,-4.36113 -24.19532,-4.625 z" /><circle
       cx="263.9317"
       cy="301.44757"
       fill="url(#a)"
       id="ellipse369"
       r="0"
       style="fill:url(#linearGradient674);stroke-width:10.2339" /><g
       aria-label="(min     )"
       transform="matrix(4.6192274,0,0,4.6192274,-5188.4788,-450.60842)"
       id="text2904"
       style="font-size:40px;line-height:1.25;text-align:center;white-space:pre;shape-inside:url(#rect2906);display:inline;fill:#e6e6e6;stroke:#000000;stroke-opacity:0"><path
         d="m 1181.9162,186.86626 q -1.72,-0.96 -3.2,-2.28 -1.48,-1.32 -2.68,-2.92 -1.16,-1.56 -2,-3.36 -0.84,-1.8 -1.36,-3.68 -0.48,-1.92 -0.72,-3.88 -0.2,-1.96 -0.2,-3.92 0,-1.96 0.2,-3.92 0.24,-1.96 0.72,-3.84 0.52,-1.92 1.36,-3.72 0.84,-1.8 2,-3.36 1.2,-1.6 2.68,-2.92 1.48,-1.32 3.2,-2.28 l 1.56,2.4 q -2.2,1.32 -3.92,3.32 -1.72,1.96 -2.8,4.32 -1.04,2.32 -1.48,4.88 -0.4,2.56 -0.4,5.12 0,2.56 0.4,5.12 0.44,2.56 1.48,4.92 1.08,2.32 2.8,4.28 1.72,2 3.92,3.32 z"
         style="font-family:'Iosevka Fixed Curly Slab';-inkscape-font-specification:'Iosevka Fixed Curly Slab';stroke:#944eb0;stroke-width:3.2473;stroke-dasharray:none;stroke-opacity:1"
         id="path323" /><path
         d="m 1185.4762,180.42626 2.84,-17.32 h -1.16 v -3.48 h 5.8 l -0.32,1.92 q 0.28,-0.44 0.6,-0.84 0.32,-0.44 0.72,-0.76 0.44,-0.32 0.92,-0.48 0.52,-0.16 1,-0.16 0,0 0,0 0,0 0,0 0.6,0 1.12,0.28 0.56,0.24 0.88,0.72 0.32,0.48 0.48,1.04 0.16,0.56 0.2,1.16 0.24,-0.6 0.56,-1.16 0.36,-0.56 0.8,-1.04 0.48,-0.48 1.08,-0.72 0.64,-0.28 1.24,-0.28 0,0 0,0 0,0 0,0 0.68,0 1.2,0.32 0.56,0.28 0.88,0.8 0.32,0.52 0.44,1.12 0.16,0.6 0.2,1.24 0.04,0.64 -0.04,1.32 -0.04,0.64 -0.16,1.28 l -1.92,11.56 h 1.2 v 3.48 h -5.84 l 2.6,-15.68 q 0.04,-0.32 0.04,-0.64 0.04,-0.32 -0.04,-0.6 -0.08,-0.28 -0.28,-0.48 -0.2,-0.24 -0.52,-0.24 -0.32,0 -0.6,0.24 -0.24,0.24 -0.4,0.56 -0.16,0.28 -0.28,0.6 -0.08,0.32 -0.2,0.64 -0.08,0.32 -0.16,0.64 -0.04,0.28 -0.08,0.6 l -2.36,14.36 h -4.08 l 2.6,-15.68 q 0.04,-0.32 0.04,-0.64 0.04,-0.32 -0.04,-0.6 -0.08,-0.28 -0.28,-0.48 -0.2,-0.24 -0.52,-0.24 -0.32,0 -0.6,0.24 -0.24,0.24 -0.4,0.56 -0.16,0.28 -0.28,0.6 -0.08,0.32 -0.2,0.64 -0.08,0.32 -0.16,0.64 -0.04,0.28 -0.08,0.6 l -2.4,14.36 z"
         style="font-style:italic;font-weight:bold;font-family:'Iosevka Fixed Curly Slab';-inkscape-font-specification:'Iosevka Fixed Curly Slab Bold Italic';fill:#cccccc;stroke:#944eb0;stroke-width:3.2473;stroke-dasharray:none;stroke-opacity:1"
         id="path325" /><path
         d="m 1217.7962,180.74626 q -0.96,0 -1.92,-0.2 -0.92,-0.2 -1.68,-0.64 -0.72,-0.48 -1.24,-1.2 -0.52,-0.76 -0.8,-1.64 -0.24,-0.88 -0.24,-1.84 0.04,-0.96 0.2,-1.92 l 1.64,-9.84 h -4.52 v -3.84 h 9.64 l -2.36,14.32 q -0.08,0.48 -0.12,0.96 0,0.48 0.12,0.92 0.12,0.44 0.44,0.76 0.36,0.32 0.84,0.32 0.52,0 1.04,-0.24 0.52,-0.24 0.88,-0.68 0.4,-0.44 0.6,-0.92 0.24,-0.52 0.4,-1.04 l 3.76,0.8 q -0.28,1.12 -0.88,2.24 -0.56,1.08 -1.48,1.96 -0.88,0.88 -2.04,1.32 -1.16,0.4 -2.28,0.4 z m -0.04,-23.92 q -0.8,0 -1.52,-0.28 -0.68,-0.28 -1.12,-0.84 -0.4,-0.56 -0.52,-1.32 -0.12,-0.76 0,-1.52 0.08,-0.56 0.36,-1.04 0.28,-0.48 0.72,-0.8 0.48,-0.36 1,-0.48 0.52,-0.12 1.08,-0.12 0.76,0 1.44,0.28 0.72,0.28 1.12,0.84 0.44,0.56 0.56,1.32 0.12,0.76 0,1.52 -0.08,0.56 -0.36,1.04 -0.28,0.48 -0.72,0.84 -0.44,0.32 -1,0.44 -0.52,0.12 -1.04,0.12 z"
         style="font-style:italic;font-weight:bold;font-family:'Iosevka Fixed Curly Slab';-inkscape-font-specification:'Iosevka Fixed Curly Slab Bold Italic';fill:#cccccc;stroke:#944eb0;stroke-width:3.2473;stroke-dasharray:none;stroke-opacity:1"
         id="path327" /><path
         d="m 1226.3962,180.42626 2.8,-16.96 h -1.12 v -3.84 h 6.28 l -0.48,2.84 q 0.44,-0.68 1,-1.28 0.6,-0.64 1.28,-1.04 0.72,-0.44 1.48,-0.64 0.8,-0.2 1.56,-0.2 1,0 1.88,0.4 0.92,0.4 1.44,1.16 0.52,0.76 0.76,1.72 0.24,0.96 0.28,1.96 0.08,0.96 0,1.96 -0.08,1 -0.24,2 l -1.36,8.08 h 1.16 v 3.84 h -6.28 l 2.08,-12.52 q 0.08,-0.52 0.12,-1.04 0.04,-0.52 0,-1.04 -0.04,-0.52 -0.16,-1 -0.12,-0.48 -0.4,-0.88 -0.28,-0.4 -0.76,-0.6 -0.44,-0.2 -0.96,-0.2 -0.68,0 -1.36,0.32 -0.68,0.28 -1.16,0.84 -0.48,0.52 -0.72,1.2 -0.24,0.64 -0.36,1.32 l -2.24,13.6 z"
         style="font-style:italic;font-weight:bold;font-family:'Iosevka Fixed Curly Slab';-inkscape-font-specification:'Iosevka Fixed Curly Slab Bold Italic';fill:#cccccc;stroke:#944eb0;stroke-width:3.2473;stroke-dasharray:none;stroke-opacity:1"
         id="path329" /><path
         d="m 1341.6568,186.86626 -1.56,-2.4 q 2.2,-1.32 3.92,-3.32 1.72,-1.96 2.76,-4.28 1.08,-2.36 1.48,-4.92 0.44,-2.56 0.44,-5.12 0,-2.56 -0.44,-5.12 -0.4,-2.56 -1.48,-4.88 -1.04,-2.36 -2.76,-4.32 -1.72,-2 -3.92,-3.32 l 1.56,-2.4 q 1.72,0.96 3.2,2.28 1.48,1.32 2.64,2.92 1.2,1.56 2.04,3.36 0.84,1.8 1.32,3.72 0.52,1.88 0.72,3.84 0.24,1.96 0.24,3.92 0,1.96 -0.24,3.92 -0.2,1.96 -0.72,3.88 -0.48,1.88 -1.32,3.68 -0.84,1.8 -2.04,3.36 -1.16,1.6 -2.64,2.92 -1.48,1.32 -3.2,2.28 z"
         style="font-family:'Iosevka Fixed Curly Slab';-inkscape-font-specification:'Iosevka Fixed Curly Slab';stroke:#944eb0;stroke-width:3.2473;stroke-dasharray:none;stroke-opacity:1"
         id="path331" /><path
         d="m 1181.9162,186.86626 q -1.72,-0.96 -3.2,-2.28 -1.48,-1.32 -2.68,-2.92 -1.16,-1.56 -2,-3.36 -0.84,-1.8 -1.36,-3.68 -0.48,-1.92 -0.72,-3.88 -0.2,-1.96 -0.2,-3.92 0,-1.96 0.2,-3.92 0.24,-1.96 0.72,-3.84 0.52,-1.92 1.36,-3.72 0.84,-1.8 2,-3.36 1.2,-1.6 2.68,-2.92 1.48,-1.32 3.2,-2.28 l 1.56,2.4 q -2.2,1.32 -3.92,3.32 -1.72,1.96 -2.8,4.32 -1.04,2.32 -1.48,4.88 -0.4,2.56 -0.4,5.12 0,2.56 0.4,5.12 0.44,2.56 1.48,4.92 1.08,2.32 2.8,4.28 1.72,2 3.92,3.32 z"
         style="font-family:'Iosevka Fixed Curly Slab';-inkscape-font-specification:'Iosevka Fixed Curly Slab';fill:#ffffff;stroke:none;stroke-width:2.16486;stroke-dasharray:none;stroke-opacity:1"
         id="path4586" /><path
         d="m 1185.4762,180.42626 2.84,-17.32 h -1.16 v -3.48 h 5.8 l -0.32,1.92 q 0.28,-0.44 0.6,-0.84 0.32,-0.44 0.72,-0.76 0.44,-0.32 0.92,-0.48 0.52,-0.16 1,-0.16 0,0 0,0 0,0 0,0 0.6,0 1.12,0.28 0.56,0.24 0.88,0.72 0.32,0.48 0.48,1.04 0.16,0.56 0.2,1.16 0.24,-0.6 0.56,-1.16 0.36,-0.56 0.8,-1.04 0.48,-0.48 1.08,-0.72 0.64,-0.28 1.24,-0.28 0,0 0,0 0,0 0,0 0.68,0 1.2,0.32 0.56,0.28 0.88,0.8 0.32,0.52 0.44,1.12 0.16,0.6 0.2,1.24 0.04,0.64 -0.04,1.32 -0.04,0.64 -0.16,1.28 l -1.92,11.56 h 1.2 v 3.48 h -5.84 l 2.6,-15.68 q 0.04,-0.32 0.04,-0.64 0.04,-0.32 -0.04,-0.6 -0.08,-0.28 -0.28,-0.48 -0.2,-0.24 -0.52,-0.24 -0.32,0 -0.6,0.24 -0.24,0.24 -0.4,0.56 -0.16,0.28 -0.28,0.6 -0.08,0.32 -0.2,0.64 -0.08,0.32 -0.16,0.64 -0.04,0.28 -0.08,0.6 l -2.36,14.36 h -4.08 l 2.6,-15.68 q 0.04,-0.32 0.04,-0.64 0.04,-0.32 -0.04,-0.6 -0.08,-0.28 -0.28,-0.48 -0.2,-0.24 -0.52,-0.24 -0.32,0 -0.6,0.24 -0.24,0.24 -0.4,0.56 -0.16,0.28 -0.28,0.6 -0.08,0.32 -0.2,0.64 -0.08,0.32 -0.16,0.64 -0.04,0.28 -0.08,0.6 l -2.4,14.36 z"
         style="font-style:italic;font-weight:bold;font-family:'Iosevka Fixed Curly Slab';-inkscape-font-specification:'Iosevka Fixed Curly Slab Bold Italic';fill:#ffffff;stroke:none;stroke-width:2.16486;stroke-dasharray:none;stroke-opacity:1"
         id="path4588" /><path
         d="m 1217.7962,180.74626 q -0.96,0 -1.92,-0.2 -0.92,-0.2 -1.68,-0.64 -0.72,-0.48 -1.24,-1.2 -0.52,-0.76 -0.8,-1.64 -0.24,-0.88 -0.24,-1.84 0.04,-0.96 0.2,-1.92 l 1.64,-9.84 h -4.52 v -3.84 h 9.64 l -2.36,14.32 q -0.08,0.48 -0.12,0.96 0,0.48 0.12,0.92 0.12,0.44 0.44,0.76 0.36,0.32 0.84,0.32 0.52,0 1.04,-0.24 0.52,-0.24 0.88,-0.68 0.4,-0.44 0.6,-0.92 0.24,-0.52 0.4,-1.04 l 3.76,0.8 q -0.28,1.12 -0.88,2.24 -0.56,1.08 -1.48,1.96 -0.88,0.88 -2.04,1.32 -1.16,0.4 -2.28,0.4 z m -0.04,-23.92 q -0.8,0 -1.52,-0.28 -0.68,-0.28 -1.12,-0.84 -0.4,-0.56 -0.52,-1.32 -0.12,-0.76 0,-1.52 0.08,-0.56 0.36,-1.04 0.28,-0.48 0.72,-0.8 0.48,-0.36 1,-0.48 0.52,-0.12 1.08,-0.12 0.76,0 1.44,0.28 0.72,0.28 1.12,0.84 0.44,0.56 0.56,1.32 0.12,0.76 0,1.52 -0.08,0.56 -0.36,1.04 -0.28,0.48 -0.72,0.84 -0.44,0.32 -1,0.44 -0.52,0.12 -1.04,0.12 z"
         style="font-style:italic;font-weight:bold;font-family:'Iosevka Fixed Curly Slab';-inkscape-font-specification:'Iosevka Fixed Curly Slab Bold Italic';fill:#ffffff;stroke:none;stroke-width:2.16486;stroke-dasharray:none;stroke-opacity:1"
         id="path4590" /><path
         d="m 1226.3962,180.42626 2.8,-16.96 h -1.12 v -3.84 h 6.28 l -0.48,2.84 q 0.44,-0.68 1,-1.28 0.6,-0.64 1.28,-1.04 0.72,-0.44 1.48,-0.64 0.8,-0.2 1.56,-0.2 1,0 1.88,0.4 0.92,0.4 1.44,1.16 0.52,0.76 0.76,1.72 0.24,0.96 0.28,1.96 0.08,0.96 0,1.96 -0.08,1 -0.24,2 l -1.36,8.08 h 1.16 v 3.84 h -6.28 l 2.08,-12.52 q 0.08,-0.52 0.12,-1.04 0.04,-0.52 0,-1.04 -0.04,-0.52 -0.16,-1 -0.12,-0.48 -0.4,-0.88 -0.28,-0.4 -0.76,-0.6 -0.44,-0.2 -0.96,-0.2 -0.68,0 -1.36,0.32 -0.68,0.28 -1.16,0.84 -0.48,0.52 -0.72,1.2 -0.24,0.64 -0.36,1.32 l -2.24,13.6 z"
         style="font-style:italic;font-weight:bold;font-family:'Iosevka Fixed Curly Slab';-inkscape-font-specification:'Iosevka Fixed Curly Slab Bold Italic';fill:#ffffff;stroke:none;stroke-width:2.16486;stroke-dasharray:none;stroke-opacity:1"
         id="path4592" /><path
         d="m 1341.6568,186.86626 -1.56,-2.4 q 2.2,-1.32 3.92,-3.32 1.72,-1.96 2.76,-4.28 1.08,-2.36 1.48,-4.92 0.44,-2.56 0.44,-5.12 0,-2.56 -0.44,-5.12 -0.4,-2.56 -1.48,-4.88 -1.04,-2.36 -2.76,-4.32 -1.72,-2 -3.92,-3.32 l 1.56,-2.4 q 1.72,0.96 3.2,2.28 1.48,1.32 2.64,2.92 1.2,1.56 2.04,3.36 0.84,1.8 1.32,3.72 0.52,1.88 0.72,3.84 0.24,1.96 0.24,3.92 0,1.96 -0.24,3.92 -0.2,1.96 -0.72,3.88 -0.48,1.88 -1.32,3.68 -0.84,1.8 -2.04,3.36 -1.16,1.6 -2.64,2.92 -1.48,1.32 -3.2,2.28 z"
         style="font-family:'Iosevka Fixed Curly Slab';-inkscape-font-specification:'Iosevka Fixed Curly Slab';fill:#ffffff;stroke:none;stroke-width:2.16486;stroke-dasharray:none;stroke-opacity:1"
         id="path4594" /></g></g></svg>
