<?xml version="1.0" encoding="UTF-8" standalone="no"?>
<!-- Created with Inkscape (http://www.inkscape.org/) -->

<svg
   version="1.1"
   id="svg2"
   width="871.74219"
   height="370.23224"
   viewBox="0 0 871.74219 370.23224"
   xml:space="preserve"
   sodipodi:docname="minemacs-cover.svg"
   inkscape:version="1.3.2 (091e20ef0f, 2023-11-25, custom)"
   xmlns:inkscape="http://www.inkscape.org/namespaces/inkscape"
   xmlns:sodipodi="http://sodipodi.sourceforge.net/DTD/sodipodi-0.dtd"
   xmlns:xlink="http://www.w3.org/1999/xlink"
   xmlns="http://www.w3.org/2000/svg"
   xmlns:svg="http://www.w3.org/2000/svg"><sodipodi:namedview
     id="namedview1"
     pagecolor="#ffffff"
     bordercolor="#666666"
     borderopacity="1.0"
     inkscape:showpageshadow="2"
     inkscape:pageopacity="0.0"
     inkscape:pagecheckerboard="0"
     inkscape:deskcolor="#d1d1d1"
     inkscape:zoom="0.69615233"
     inkscape:cx="398.61965"
     inkscape:cy="-19.392307"
     inkscape:window-width="1920"
     inkscape:window-height="1048"
     inkscape:window-x="0"
     inkscape:window-y="0"
     inkscape:window-maximized="1"
     inkscape:current-layer="svg2" /><defs
     id="defs6"><rect
       x="992.27368"
       y="144.0311"
       width="547.68567"
       height="126.66529"
       id="rect2906" /><linearGradient
       id="a"
       gradientUnits="userSpaceOnUse"
       x1="24"
       x2="24"
       y1="1048.3622"
       y2="1008.3622"><stop
         offset="0"
         stop-color="#6e3a84"
         id="stop354" /><stop
         offset="1"
         stop-color="#a75ec4"
         id="stop356" /></linearGradient><linearGradient
       id="b"
       gradientUnits="userSpaceOnUse"
       x1="10.265631"
       x2="34.664875"
       y1="12.109384"
       y2="24.483568"
       gradientTransform="matrix(12.482135,0,0,12.482135,400.18209,15.089723)"><stop
         offset="0"
         id="stop359" /><stop
         offset="1"
         stop-color="#9b59b6"
         stop-opacity="0"
         id="stop361" /></linearGradient><linearGradient
       id="c"
       gradientUnits="userSpaceOnUse"
       x1="22.676477"
       x2="22.676477"
       y1="1052.4169"
       y2="1015.2677"
       gradientTransform="matrix(12.482135,0,0,12.482135,400.18209,-12521.496)"><stop
         offset="0"
         stop-color="#dde0e2"
         id="stop364" /><stop
         offset="1"
         stop-color="#fcfcfc"
         id="stop366" /></linearGradient><linearGradient
       xlink:href="#a"
       id="linearGradient674"
       gradientUnits="userSpaceOnUse"
       x1="24"
       y1="1048.3622"
       x2="24"
       y2="1008.3622"
       gradientTransform="matrix(10.233929,0,0,10.233929,18.317391,-10222.738)" /><linearGradient
       xlink:href="#linearGradient2706"
       id="linearGradient2708"
       x1="1005.0918"
       y1="188.28711"
       x2="229.65627"
       y2="431.88867"
       gradientUnits="userSpaceOnUse"
       gradientTransform="translate(-1.2832031e-5)" /><linearGradient
       id="linearGradient2706"><stop
         style="stop-color:#a669bd;stop-opacity:1;"
         offset="0"
         id="stop2702" /><stop
         style="stop-color:#8e45ac;stop-opacity:1;"
         offset="1"
         id="stop2704" /></linearGradient></defs><g
     id="g8"
     transform="translate(-184.12891,-123.98554)"><path
       id="path15"
       style="fill:url(#linearGradient2708);fill-opacity:1;stroke:none;stroke-width:0.623622;stroke-linecap:round;stroke-linejoin:round;paint-order:markers stroke fill;stop-color:#000000"
       d="m 884.5,124.01367 c -2.88765,-0.0473 -5.93437,-0.0345 -9.20117,0.0352 -14.55318,0.31002 -28.37372,2.73722 -40.57617,6.83789 -7.0276,2.66182 -13.16211,7.24871 -17.70313,13.23633 -13.68008,-1.95795 -28.29762,-4.24649 -42.44922,-6.20313 -14.30871,-1.97837 -28.18972,-3.63714 -41.75586,-3.94531 -13.56612,-0.30817 -26.67277,-1.39143 -44.76562,8.56641 -21.20618,11.67156 -33.57617,35.09627 -33.57617,56.02929 0,25.0729 8.85301,41.4555 21.38086,56.39844 -16.85503,3.53139 -33.06377,8.93456 -48.22852,16.32422 h -0.002 -0.002 c -12.49991,6.0906 -24.10011,14.98065 -33.03906,25.94726 -0.36019,-2.18966 -0.74176,-4.3772 -1.2793,-6.52734 -1.78343,-7.13371 -4.88427,-14.37425 -9.30273,-20.83203 -5.91139,-8.63975 -14.75493,-15.47778 -23.4668,-19.32227 -7.81854,-3.49073 -16.59227,-5.29492 -24.88281,-5.29492 -5.57472,0 -10.99595,0.74659 -16.13281,1.97266 -2.05879,-0.32666 -4.14007,-0.49183 -6.22461,-0.49414 h -23.32422 c -1.52759,-7.24543 -4.71413,-14.8117 -9.49609,-21.17969 -5.91927,-7.98038 -14.43813,-14.00683 -22.4336,-17.17578 -6.83346,-2.74182 -14.33328,-4.14258 -21.42578,-4.14258 -4.58747,0 -9.32315,0.50291 -13.98242,1.57813 -7.38912,1.70516 -14.07416,5.0998 -19.35742,9.01171 -5.69313,4.18855 -10.67735,9.77892 -14.14453,15.72266 -3.22542,5.52933 -5.4168,11.83682 -6.46289,18.0293 -5.9702,-2.17733 -12.18348,-3.32227 -17.74219,-3.32227 -5.29479,0 -10.30672,0.88985 -14.90625,2.23047 -4.78165,-1.40516 -9.74186,-2.23047 -14.47266,-2.23047 -4.38596,0 -8.47246,0.66702 -12.35351,1.56836 -0.37771,-0.0353 -0.75622,-0.0653 -1.13477,-0.0898 h -4.74805 c 2.20615,-10.34309 0.22609,-21.13964 -5.50586,-30.02735 l -7.20507,-11.08593 c -7.36687,-11.33006 -19.86603,-18.06264 -33.13086,-18.19532 -1.89498,-0.019 -3.80521,0.0972 -5.71875,0.35352 -4.9821,0.66735 -9.79422,2.2673 -14.1836,4.7168 -7.84466,4.3784 -15.20014,9.62453 -21.9082,15.60742 -6.54298,5.83562 -12.49399,12.32402 -17.75586,19.33984 -0.0329,0.0439 -0.0669,0.0888 -0.0996,0.13281 -5.20788,7.00371 -9.68623,14.54721 -13.38476,22.47266 -3.55224,7.61192 -6.44588,15.52251 -8.64454,23.64063 -0.0506,0.18666 -0.10054,0.37512 -0.14843,0.5625 -1.90686,7.46854 -3.33073,15.07275 -4.27344,22.77148 -0.0326,0.26703 -0.0626,0.53315 -0.0898,0.80078 -0.75259,7.37539 -1.13086,14.77172 -1.13086,22.16797 0,7.39625 0.37827,14.79257 1.13086,22.16797 0.0272,0.26763 0.0572,0.53375 0.0898,0.80078 0.93879,7.66675 2.3507,15.26606 4.22461,22.76172 0.0804,0.32173 0.16354,0.64326 0.25195,0.96289 2.20302,7.96474 5.08471,15.739 8.58985,23.25 3.69852,7.92544 8.1769,15.46896 13.38476,22.47266 0.0327,0.044 0.0667,0.0889 0.0996,0.13281 5.26186,7.01579 11.21291,13.50424 17.75586,19.33984 6.70809,5.9829 14.0636,11.22905 21.9082,15.60742 18.378,10.25586 41.56082,4.51921 53.03321,-13.125 l 7.20507,-11.08593 c 0.23354,-0.40755 0.46066,-0.81886 0.67969,-1.23438 1.45133,0.33915 2.92029,0.59629 4.40039,0.77149 h 18.84766 c 1.76109,-0.19405 3.50668,-0.50414 5.22656,-0.92969 1.7453,0.42894 3.51759,0.73905 5.30469,0.92969 h 26.97656 c 8.99957,-0.22687 17.6581,-3.48202 24.57813,-9.24024 0.0566,0.038 0.10928,0.0833 0.16601,0.12109 0.70102,0.46747 1.41735,0.91172 2.14649,1.33399 6.12974,3.54881 12.76556,6.00227 19.30468,7.42383 0.11305,0.0245 0.22464,0.0487 0.33789,0.0723 5.56307,1.15897 11.29342,1.76563 17.02735,1.76563 8.21066,0 16.24848,-1.50842 23.57031,-4.03321 0.38433,-0.13251 0.76638,-0.26988 1.14648,-0.41406 0.0734,-0.0278 0.1435,-0.0695 0.2168,-0.0976 4.69048,1.95235 9.71098,2.99434 14.79102,3.06836 h 20.8789 c 4.66161,-0.008 9.28571,-0.83146 13.66407,-2.43165 4.38389,1.60221 9.01412,2.42579 13.68164,2.43165 h 29.00976 c 19.51866,-0.003 35.72312,-14.00013 39.24414,-32.49415 4.75106,6.97918 10.2701,13.50935 16.17383,19.44336 l 0.002,0.002 0.002,0.002 c 12.61037,12.54604 26.50342,22.44969 47.06054,34.51367 0.0597,0.0201 0.11984,0.0388 0.17969,0.0586 l -0.0371,0.0215 c 32.69679,19.00662 73.30182,31.38156 116.1836,40.26367 4.1603,0.86183 26.61447,5.39132 54.28125,7.44141 27.66675,2.0501 58.39813,7.82153 91.93945,-15.61524 11.71957,-8.18928 20.48049,-19.81682 25.33984,-32.99218 12.59118,10.18901 30.08396,11.77972 44.30664,4.02929 7.8444,-4.37833 15.204,-9.62457 21.9121,-15.60742 6.5266,-5.82108 12.4142,-12.34549 17.582,-19.40234 5.3372,-7.00323 9.9358,-14.56442 13.6582,-22.54102 3.5725,-7.65539 6.4301,-15.61748 8.5293,-23.77343 2.0885,-7.77578 3.5638,-15.70006 4.3965,-23.69532 0.8947,-7.46684 1.3594,-14.96945 1.3594,-22.47656 0,-7.50711 -0.4647,-15.00972 -1.3594,-22.47656 -0.8279,-7.94931 -2.3046,-15.8108 -4.4023,-23.50586 -2.0877,-8.23264 -4.9313,-16.26333 -8.5235,-23.96094 -3.7224,-7.97661 -8.321,-15.53974 -13.6582,-22.54297 -5.1678,-7.05687 -11.0553,-13.58125 -17.582,-19.40234 -6.7081,-5.98283 -14.0676,-11.22907 -21.9121,-15.60742 -7.17539,-3.73262 -15.3141,-5.20344 -23.34179,-4.2168 -2.4862,-26.67467 -20.02869,-46.49958 -40.10352,-55.88867 h -0.002 c -0.57331,-0.2682 -7.2028,-3.58142 -14.75391,-5.48047 -7.55227,-1.89934 -15.67882,-2.73992 -25.73242,-2.9043 z" /><circle
       cx="263.9317"
       cy="301.44757"
       fill="url(#a)"
       id="ellipse369"
       r="0"
       style="fill:url(#linearGradient674);stroke-width:10.2339" /><g
       id="g2962"
       transform="matrix(0.90051946,0,0,0.90051946,151.088,26.514316)"
       style="fill:#ffffff;fill-opacity:1"><path
         d="m 583.44014,425.61842 c -21.54403,-12.64316 -32.00963,-20.24353 -43.53223,-31.62474 -13.86487,-13.69041 -20.12793,-24.19537 -21.93655,-36.79109 -2.48762,-17.32271 9.54697,-35.16342 30.66298,-45.45121 41.38711,-20.16863 97.45764,-24.57731 151.24006,-11.89298 11.38627,2.68616 11.0171,1.83862 -2.75101,-6.28849 -18.12255,-10.70469 -46.14083,-32.82178 -62.42171,-49.27573 -19.3127,-19.51832 -31.2885,-40.14878 -31.2885,-53.23131 0,-8.6339 4.25969,-17.78704 14.28378,-23.30415 23.45503,-12.90903 105.78437,8.81862 160.9048,11.90297 17.45615,0.89871 29.13794,1.04849 29.0864,-9.06205 -0.0436,-8.65509 -23.18655,-13.4008 -34.3822,-12.59322 9.83182,-3.30402 19.25692,-5.02156 31.85504,-5.28993 25.1922,-0.53673 30.27746,2.70114 35.41237,5.1027 10.34487,4.83807 19.7433,15.95717 19.31212,30.10691 -1.38969,45.60473 -55.7935,25.31377 -92.00424,18.7644 -39.94874,-7.22592 -74.24008,-13.14619 -85.84273,0.4868 -27.39021,32.19517 68.42474,95.35103 98.01637,117.80265 -24.70043,1.88231 -156.67246,-11.80435 -174.85154,34.40576 -6.41901,20.97873 28.85337,43.37667 61.7757,54.73166 26.78899,8.82363 59.36079,18.82557 99.81034,21.47676 36.65056,2.40282 55.41887,-2.82969 51.97094,-30.61742 29.11859,15.05845 27.22173,45.04553 8.30658,58.26287 -30.63625,21.40687 -122.387,3.13675 -127.92444,1.98965 -44.6604,-9.25052 -86.57444,-22.68379 -115.70233,-39.61581 z"
         fill="url(#c)"
         id="path377"
         style="fill:#ffffff;fill-opacity:1;stroke-width:12.4821" /></g><path
       d="m 271.0609,412.56933 q -7.94508,-4.43446 -14.78153,-10.53184 -6.83646,-6.09738 -12.37953,-13.48814 -5.35831,-7.206 -9.23846,-15.52061 -3.88015,-8.31461 -6.28215,-16.99876 -2.21722,-8.86891 -3.32584,-17.9226 -0.92384,-9.05368 -0.92384,-18.10737 0,-9.05368 0.92384,-18.10737 1.10862,-9.05369 3.32584,-17.73783 2.402,-8.86892 6.28215,-17.18353 3.88015,-8.31461 9.23846,-15.5206 5.54307,-7.39077 12.37953,-13.48815 6.83645,-6.09738 14.78153,-10.53184 l 7.20599,11.08615 q -10.1623,6.09738 -18.10737,15.33583 -7.94507,9.05369 -12.93384,19.95507 -4.80399,10.7166 -6.83645,22.54183 -1.8477,11.82522 -1.8477,23.65044 0,11.82522 1.8477,23.65045 2.03246,11.82522 6.83645,22.72659 4.98877,10.71661 12.93384,19.7703 7.94507,9.23845 18.10737,15.33583 z"
       style="font-size:40px;line-height:1.25;font-family:'Iosevka Fixed Curly Slab';-inkscape-font-specification:'Iosevka Fixed Curly Slab';text-align:center;white-space:pre;fill:#ffffff;fill-opacity:1;stroke-width:4.61923"
       id="path323" /><path
       d="m 287.50535,382.8215 13.1186,-80.00501 h -5.3583 v -16.07492 h 26.79152 l -1.47816,8.86892 q 1.29339,-2.03246 2.77154,-3.88015 1.47815,-2.03246 3.32584,-3.51061 2.03246,-1.47816 4.24969,-2.21723 2.402,-0.73908 4.61923,-0.73908 0,0 0,0 0,0 0,0 2.77154,0 5.17353,1.29338 2.58677,1.10862 4.06492,3.32585 1.47816,2.21723 2.21723,4.804 0.73908,2.58676 0.92385,5.3583 1.10861,-2.77154 2.58677,-5.3583 1.66292,-2.58677 3.69538,-4.804 2.21723,-2.21723 4.98876,-3.32585 2.95631,-1.29338 5.72785,-1.29338 0,0 0,0 0,0 0,0 3.14107,0 5.54307,1.47815 2.58677,1.29339 4.06492,3.69539 1.47815,2.40199 2.03246,5.17353 0.73908,2.77154 0.92384,5.72784 0.18477,2.95631 -0.18476,6.09738 -0.18477,2.95631 -0.73908,5.91261 l -8.86892,53.39827 h 5.54308 v 16.07491 h -26.97629 l 12.00999,-72.42948 q 0.18477,-1.47815 0.18477,-2.95631 0.18477,-1.47815 -0.18477,-2.77153 -0.36954,-1.29339 -1.29338,-2.21723 -0.92385,-1.10862 -2.402,-1.10862 -1.47816,0 -2.77154,1.10862 -1.10861,1.10861 -1.84769,2.58676 -0.73908,1.29339 -1.29338,2.77154 -0.36954,1.47815 -0.92385,2.95631 -0.36954,1.47815 -0.73908,2.9563 -0.18477,1.29339 -0.36953,2.77154 l -10.90138,66.3321 h -18.84645 l 12.00999,-72.42948 q 0.18477,-1.47815 0.18477,-2.95631 0.18477,-1.47815 -0.18477,-2.77153 -0.36954,-1.29339 -1.29338,-2.21723 -0.92385,-1.10862 -2.402,-1.10862 -1.47815,0 -2.77154,1.10862 -1.10861,1.10861 -1.84769,2.58676 -0.73907,1.29339 -1.29338,2.77154 -0.36954,1.47815 -0.92385,2.95631 -0.36953,1.47815 -0.73907,2.9563 -0.18477,1.29339 -0.36954,2.77154 l -11.08615,66.3321 z"
       style="font-style:italic;font-weight:bold;font-size:40px;line-height:1.25;font-family:'Iosevka Fixed Curly Slab';-inkscape-font-specification:'Iosevka Fixed Curly Slab Bold Italic';text-align:center;white-space:pre;fill:#ffffff;fill-opacity:1;stroke-width:4.61923"
       id="path325" /><path
       d="m 436.79877,384.29966 q -4.43445,0 -8.86891,-0.92385 -4.24969,-0.92384 -7.7603,-2.9563 -3.32585,-2.21723 -5.72785,-5.54308 -2.40199,-3.51061 -3.69538,-7.57553 -1.10861,-4.06492 -1.10861,-8.49938 0.18477,-4.43446 0.92384,-8.86892 l 7.57554,-45.45319 h -20.87891 v -17.73784 h 44.52935 l -10.90138,66.14734 q -0.36953,2.21723 -0.5543,4.43446 0,2.21723 0.5543,4.24969 0.55431,2.03246 2.03246,3.51061 1.66293,1.47815 3.88015,1.47815 2.402,0 4.804,-1.10861 2.402,-1.10862 4.06492,-3.14108 1.84769,-2.03246 2.77154,-4.24968 1.10861,-2.402 1.84769,-4.804 l 17.36829,3.69538 q -1.29338,5.17354 -4.06492,10.34707 -2.58676,4.98877 -6.83645,9.05369 -4.06492,4.06492 -9.42323,6.09738 -5.3583,1.84769 -10.53184,1.84769 z m -0.18476,-110.49192 q -3.69539,0 -7.02123,-1.29339 -3.14107,-1.29338 -5.17353,-3.88015 -1.8477,-2.58676 -2.402,-6.09738 -0.55431,-3.51061 0,-7.02122 0.36954,-2.58677 1.66292,-4.804 1.29338,-2.21723 3.32584,-3.69538 2.21723,-1.66292 4.61923,-2.21723 2.402,-0.55431 4.98877,-0.55431 3.51061,0 6.65168,1.29339 3.32585,1.29338 5.17354,3.88015 2.03246,2.58676 2.58677,6.09738 0.5543,3.51061 0,7.02122 -0.36954,2.58677 -1.66293,4.804 -1.29338,2.21723 -3.32584,3.88015 -2.03246,1.47815 -4.61923,2.03246 -2.402,0.55431 -4.80399,0.55431 z"
       style="font-style:italic;font-weight:bold;font-size:40px;line-height:1.25;font-family:'Iosevka Fixed Curly Slab';-inkscape-font-specification:'Iosevka Fixed Curly Slab Bold Italic';text-align:center;white-space:pre;fill:#ffffff;fill-opacity:1;stroke-width:4.61923"
       id="path327" /><path
       d="m 476.52413,382.8215 12.93384,-78.34209 h -5.17354 v -17.73784 h 29.00875 l -2.21723,13.11861 q 2.03246,-3.14107 4.61923,-5.91261 2.77154,-2.95631 5.91261,-4.804 3.32584,-2.03246 6.83646,-2.9563 3.69538,-0.92385 7.20599,-0.92385 4.61923,0 8.68415,1.84769 4.24969,1.84769 6.65169,5.35831 2.40199,3.51061 3.51061,7.94507 1.10861,4.43446 1.29338,9.05368 0.36954,4.43446 0,9.05369 -0.36954,4.61923 -1.10861,9.23845 l -6.28215,37.32336 h 5.3583 v 17.73783 h -29.00875 l 9.608,-57.83272 q 0.36954,-2.402 0.5543,-4.804 0.18477,-2.402 0,-4.804 -0.18476,-2.40199 -0.73907,-4.61922 -0.55431,-2.21723 -1.84769,-4.06492 -1.29339,-1.84769 -3.51062,-2.77154 -2.03246,-0.92385 -4.43445,-0.92385 -3.14108,0 -6.28215,1.47816 -3.14108,1.29338 -5.35831,3.88015 -2.21723,2.402 -3.32584,5.54307 -1.10862,2.95631 -1.66292,6.09738 l -10.34707,62.82149 z"
       style="font-style:italic;font-weight:bold;font-size:40px;line-height:1.25;font-family:'Iosevka Fixed Curly Slab';-inkscape-font-specification:'Iosevka Fixed Curly Slab Bold Italic';text-align:center;white-space:pre;fill:#ffffff;fill-opacity:1;stroke-width:4.61923"
       id="path329" /><path
       d="m 968.9391,412.56933 -7.206,-11.08615 q 10.1623,-6.09738 18.1073,-15.33583 7.9451,-9.05369 12.7491,-19.7703 4.9888,-10.90137 6.8365,-22.72659 2.0324,-11.82523 2.0324,-23.65045 0,-11.82522 -2.0324,-23.65044 -1.8477,-11.82523 -6.8365,-22.54183 -4.804,-10.90138 -12.7491,-19.95507 -7.945,-9.23845 -18.1073,-15.33583 l 7.206,-11.08615 q 7.945,4.43446 14.7815,10.53184 6.8364,6.09738 12.1947,13.48815 5.5431,7.20599 9.4233,15.5206 3.8801,8.31461 6.0973,17.18353 2.402,8.68414 3.3259,17.73783 1.1086,9.05369 1.1086,18.10737 0,9.05369 -1.1086,18.10737 -0.9239,9.05369 -3.3259,17.9226 -2.2172,8.68415 -6.0973,16.99876 -3.8802,8.31461 -9.4233,15.52061 -5.3583,7.39076 -12.1947,13.48814 -6.8365,6.09738 -14.7815,10.53184 z"
       style="font-size:40px;line-height:1.25;font-family:'Iosevka Fixed Curly Slab';-inkscape-font-specification:'Iosevka Fixed Curly Slab';text-align:center;white-space:pre;fill:#ffffff;fill-opacity:1;stroke-width:4.61923"
       id="path331" /></g></svg>
