<?xml version="1.0" encoding="UTF-8" standalone="no"?>
<!-- Created with Inkscape (http://www.inkscape.org/) -->

<svg
   version="1.1"
   id="svg2"
   width="1280"
   height="640"
   viewBox="0 0 1280 640"
   xml:space="preserve"
   xmlns:xlink="http://www.w3.org/1999/xlink"
   xmlns="http://www.w3.org/2000/svg"
   xmlns:svg="http://www.w3.org/2000/svg"><defs
     id="defs6"><rect
       x="992.27366"
       y="144.0311"
       width="547.68568"
       height="126.66529"
       id="rect2906" /><linearGradient
       id="a"
       gradientUnits="userSpaceOnUse"
       x1="24"
       x2="24"
       y1="1048.3622"
       y2="1008.3622"><stop
         offset="0"
         stop-color="#6e3a84"
         id="stop354" /><stop
         offset="1"
         stop-color="#a75ec4"
         id="stop356" /></linearGradient><linearGradient
       id="b"
       gradientUnits="userSpaceOnUse"
       x1="23.404831"
       x2="40.713921"
       y1="22.8561"
       y2="32.733582"
       gradientTransform="matrix(12.482135,0,0,12.482135,400.18209,15.089723)"><stop
         offset="0"
         id="stop359" /><stop
         offset="1"
         stop-color="#9b59b6"
         stop-opacity="0"
         id="stop361" /></linearGradient><linearGradient
       id="c"
       gradientUnits="userSpaceOnUse"
       x1="22.676477"
       x2="22.676477"
       y1="1052.4169"
       y2="1015.2677"
       gradientTransform="matrix(12.482135,0,0,12.482135,400.18209,-12521.496)"><stop
         offset="0"
         stop-color="#dde0e2"
         id="stop364" /><stop
         offset="1"
         stop-color="#fcfcfc"
         id="stop366" /></linearGradient><linearGradient
       xlink:href="#a"
       id="linearGradient674"
       gradientUnits="userSpaceOnUse"
       x1="24"
       y1="1048.3622"
       x2="24"
       y2="1008.3622"
       gradientTransform="matrix(10.233929,0,0,10.233929,18.317391,-10222.738)" /><linearGradient
       xlink:href="#linearGradient2706"
       id="linearGradient2708"
       x1="1201.9583"
       y1="77.863441"
       x2="78.229858"
       y2="561.91089"
       gradientUnits="userSpaceOnUse"
       gradientTransform="translate(-1.2832031e-5)" /><linearGradient
       id="linearGradient2706"><stop
         style="stop-color:#a669bd;stop-opacity:1;"
         offset="0"
         id="stop2702" /><stop
         style="stop-color:#8e45ac;stop-opacity:1;"
         offset="1"
         id="stop2704" /></linearGradient></defs><g
     id="g8"><rect
       style="fill:url(#linearGradient2708);fill-opacity:1;stroke:#2c5aa0;stroke-width:0.623622;stroke-linecap:round;stroke-linejoin:round;paint-order:markers stroke fill;stop-color:#000000"
       id="rect2697"
       width="1280"
       height="640"
       x="0"
       y="0" /><circle
       cx="263.9317"
       cy="301.44757"
       fill="url(#a)"
       id="ellipse369"
       r="0"
       style="fill:url(#linearGradient674);stroke-width:10.2339" /><g
       id="g2962"
       transform="matrix(0.90051946,0,0,0.90051946,191.088,26.514316)"><path
         d="m 782.76443,205.32039 c -54.80568,-13.44836 -99.34748,-15.23896 -124.43129,5.07086 l 18.7232,49.53848 55.38948,50.70867 L 640,320 l -52.659,21.45368 17.1873,42.41976 -43.54121,-1.21901 -31.42475,-1.414 27.62162,29.30378 169.37036,184.07689 c 133.48797,-5.78025 335.35718,-114.65605 335.44098,-248.26909 -0.1022,-19.08457 -2.3926,-38.09447 -6.8262,-56.65719 L 851.41618,166.85005 c -11.47754,-5.44003 -51.15262,27.06721 -68.65175,38.47034 z m -254.44541,175.87134 0.0737,0.12232 v -0.12232 z"
         fill="url(#b)"
         opacity="0.2"
         id="path375"
         style="fill:url(#b);stroke-width:12.4821" /><path
         d="m 583.44014,425.61842 c -21.54403,-12.64316 -32.00963,-20.24353 -43.53223,-31.62474 -13.86487,-13.69041 -20.12793,-24.19537 -21.93655,-36.79109 -2.48762,-17.32271 9.54697,-35.16342 30.66298,-45.45121 41.38711,-20.16863 97.45764,-24.57731 151.24006,-11.89298 11.38627,2.68616 11.0171,1.83862 -2.75101,-6.28849 -18.12255,-10.70469 -46.14083,-32.82178 -62.42171,-49.27573 -19.3127,-19.51832 -31.2885,-40.14878 -31.2885,-53.23131 0,-8.6339 4.25969,-17.78704 14.28378,-23.30415 23.45503,-12.90903 105.78437,8.81862 160.9048,11.90297 17.45615,0.89871 29.13794,1.04849 29.0864,-9.06205 -0.0436,-8.65509 -23.18655,-13.4008 -34.3822,-12.59322 9.83182,-3.30402 19.25692,-5.02156 31.85504,-5.28993 25.1922,-0.53673 30.27746,2.70114 35.41237,5.1027 10.34487,4.83807 19.7433,15.95717 19.31212,30.10691 -1.38969,45.60473 -55.7935,25.31377 -92.00424,18.7644 -39.94874,-7.22592 -74.24008,-13.14619 -85.84273,0.4868 -27.39021,32.19517 68.42474,95.35103 98.01637,117.80265 -24.70043,1.88231 -156.67246,-11.80435 -174.85154,34.40576 -6.41901,20.97873 28.85337,43.37667 61.7757,54.73166 26.78899,8.82363 59.36079,18.82557 99.81034,21.47676 36.65056,2.40282 55.41887,-2.82969 51.97094,-30.61742 29.11859,15.05845 27.22173,45.04553 8.30658,58.26287 -30.63625,21.40687 -122.387,3.13675 -127.92444,1.98965 -44.6604,-9.25052 -86.57444,-22.68379 -115.70233,-39.61581 z"
         fill="url(#c)"
         id="path377"
         style="fill:url(#c);stroke-width:12.4821" /></g><g
       id="g321"><g
         aria-label="(min     )"
         transform="matrix(4.6192274,0,0,4.6192274,-5188.4788,-450.60842)"
         id="text2904"
         style="font-size:40px;line-height:1.25;text-align:center;white-space:pre;shape-inside:url(#rect2906);display:inline;fill:#e6e6e6"><path
           d="m 1181.9162,186.86626 q -1.72,-0.96 -3.2,-2.28 -1.48,-1.32 -2.68,-2.92 -1.16,-1.56 -2,-3.36 -0.84,-1.8 -1.36,-3.68 -0.48,-1.92 -0.72,-3.88 -0.2,-1.96 -0.2,-3.92 0,-1.96 0.2,-3.92 0.24,-1.96 0.72,-3.84 0.52,-1.92 1.36,-3.72 0.84,-1.8 2,-3.36 1.2,-1.6 2.68,-2.92 1.48,-1.32 3.2,-2.28 l 1.56,2.4 q -2.2,1.32 -3.92,3.32 -1.72,1.96 -2.8,4.32 -1.04,2.32 -1.48,4.88 -0.4,2.56 -0.4,5.12 0,2.56 0.4,5.12 0.44,2.56 1.48,4.92 1.08,2.32 2.8,4.28 1.72,2 3.92,3.32 z"
           style="font-family:'Iosevka Fixed Curly Slab';-inkscape-font-specification:'Iosevka Fixed Curly Slab'"
           id="path323" /><path
           d="m 1185.4762,180.42626 2.84,-17.32 h -1.16 v -3.48 h 5.8 l -0.32,1.92 q 0.28,-0.44 0.6,-0.84 0.32,-0.44 0.72,-0.76 0.44,-0.32 0.92,-0.48 0.52,-0.16 1,-0.16 0,0 0,0 0,0 0,0 0.6,0 1.12,0.28 0.56,0.24 0.88,0.72 0.32,0.48 0.48,1.04 0.16,0.56 0.2,1.16 0.24,-0.6 0.56,-1.16 0.36,-0.56 0.8,-1.04 0.48,-0.48 1.08,-0.72 0.64,-0.28 1.24,-0.28 0,0 0,0 0,0 0,0 0.68,0 1.2,0.32 0.56,0.28 0.88,0.8 0.32,0.52 0.44,1.12 0.16,0.6 0.2,1.24 0.04,0.64 -0.04,1.32 -0.04,0.64 -0.16,1.28 l -1.92,11.56 h 1.2 v 3.48 h -5.84 l 2.6,-15.68 q 0.04,-0.32 0.04,-0.64 0.04,-0.32 -0.04,-0.6 -0.08,-0.28 -0.28,-0.48 -0.2,-0.24 -0.52,-0.24 -0.32,0 -0.6,0.24 -0.24,0.24 -0.4,0.56 -0.16,0.28 -0.28,0.6 -0.08,0.32 -0.2,0.64 -0.08,0.32 -0.16,0.64 -0.04,0.28 -0.08,0.6 l -2.36,14.36 h -4.08 l 2.6,-15.68 q 0.04,-0.32 0.04,-0.64 0.04,-0.32 -0.04,-0.6 -0.08,-0.28 -0.28,-0.48 -0.2,-0.24 -0.52,-0.24 -0.32,0 -0.6,0.24 -0.24,0.24 -0.4,0.56 -0.16,0.28 -0.28,0.6 -0.08,0.32 -0.2,0.64 -0.08,0.32 -0.16,0.64 -0.04,0.28 -0.08,0.6 l -2.4,14.36 z"
           style="font-style:italic;font-weight:bold;font-family:'Iosevka Fixed Curly Slab';-inkscape-font-specification:'Iosevka Fixed Curly Slab Bold Italic';fill:#cccccc"
           id="path325" /><path
           d="m 1217.7962,180.74626 q -0.96,0 -1.92,-0.2 -0.92,-0.2 -1.68,-0.64 -0.72,-0.48 -1.24,-1.2 -0.52,-0.76 -0.8,-1.64 -0.24,-0.88 -0.24,-1.84 0.04,-0.96 0.2,-1.92 l 1.64,-9.84 h -4.52 v -3.84 h 9.64 l -2.36,14.32 q -0.08,0.48 -0.12,0.96 0,0.48 0.12,0.92 0.12,0.44 0.44,0.76 0.36,0.32 0.84,0.32 0.52,0 1.04,-0.24 0.52,-0.24 0.88,-0.68 0.4,-0.44 0.6,-0.92 0.24,-0.52 0.4,-1.04 l 3.76,0.8 q -0.28,1.12 -0.88,2.24 -0.56,1.08 -1.48,1.96 -0.88,0.88 -2.04,1.32 -1.16,0.4 -2.28,0.4 z m -0.04,-23.92 q -0.8,0 -1.52,-0.28 -0.68,-0.28 -1.12,-0.84 -0.4,-0.56 -0.52,-1.32 -0.12,-0.76 0,-1.52 0.08,-0.56 0.36,-1.04 0.28,-0.48 0.72,-0.8 0.48,-0.36 1,-0.48 0.52,-0.12 1.08,-0.12 0.76,0 1.44,0.28 0.72,0.28 1.12,0.84 0.44,0.56 0.56,1.32 0.12,0.76 0,1.52 -0.08,0.56 -0.36,1.04 -0.28,0.48 -0.72,0.84 -0.44,0.32 -1,0.44 -0.52,0.12 -1.04,0.12 z"
           style="font-style:italic;font-weight:bold;font-family:'Iosevka Fixed Curly Slab';-inkscape-font-specification:'Iosevka Fixed Curly Slab Bold Italic';fill:#cccccc"
           id="path327" /><path
           d="m 1226.3962,180.42626 2.8,-16.96 h -1.12 v -3.84 h 6.28 l -0.48,2.84 q 0.44,-0.68 1,-1.28 0.6,-0.64 1.28,-1.04 0.72,-0.44 1.48,-0.64 0.8,-0.2 1.56,-0.2 1,0 1.88,0.4 0.92,0.4 1.44,1.16 0.52,0.76 0.76,1.72 0.24,0.96 0.28,1.96 0.08,0.96 0,1.96 -0.08,1 -0.24,2 l -1.36,8.08 h 1.16 v 3.84 h -6.28 l 2.08,-12.52 q 0.08,-0.52 0.12,-1.04 0.04,-0.52 0,-1.04 -0.04,-0.52 -0.16,-1 -0.12,-0.48 -0.4,-0.88 -0.28,-0.4 -0.76,-0.6 -0.44,-0.2 -0.96,-0.2 -0.68,0 -1.36,0.32 -0.68,0.28 -1.16,0.84 -0.48,0.52 -0.72,1.2 -0.24,0.64 -0.36,1.32 l -2.24,13.6 z"
           style="font-style:italic;font-weight:bold;font-family:'Iosevka Fixed Curly Slab';-inkscape-font-specification:'Iosevka Fixed Curly Slab Bold Italic';fill:#cccccc"
           id="path329" /><path
           d="m 1341.6568,186.86626 -1.56,-2.4 q 2.2,-1.32 3.92,-3.32 1.72,-1.96 2.76,-4.28 1.08,-2.36 1.48,-4.92 0.44,-2.56 0.44,-5.12 0,-2.56 -0.44,-5.12 -0.4,-2.56 -1.48,-4.88 -1.04,-2.36 -2.76,-4.32 -1.72,-2 -3.92,-3.32 l 1.56,-2.4 q 1.72,0.96 3.2,2.28 1.48,1.32 2.64,2.92 1.2,1.56 2.04,3.36 0.84,1.8 1.32,3.72 0.52,1.88 0.72,3.84 0.24,1.96 0.24,3.92 0,1.96 -0.24,3.92 -0.2,1.96 -0.72,3.88 -0.48,1.88 -1.32,3.68 -0.84,1.8 -2.04,3.36 -1.16,1.6 -2.64,2.92 -1.48,1.32 -3.2,2.28 z"
           style="font-family:'Iosevka Fixed Curly Slab';-inkscape-font-specification:'Iosevka Fixed Curly Slab'"
           id="path331" /></g></g></g></svg>
